<?xml version="1.0" standalone="no"?>
<!DOCTYPE svg PUBLIC "-//W3C//DTD SVG 20010904//EN"
 "http://www.w3.org/TR/2001/REC-SVG-20010904/DTD/svg10.dtd">
<svg version="1.0" xmlns="http://www.w3.org/2000/svg"
 width="93.000000pt" height="93.000000pt" viewBox="0 0 93.000000 93.000000"
 preserveAspectRatio="xMidYMid meet">
<metadata>
Created by potrace 1.14, written by Peter Selinger 2001-2017
</metadata>
<g transform="translate(0.000000,93.000000) scale(0.100000,-0.100000)"
fill="#000000" stroke="none">
<path d="M382 764 c-18 -7 -32 -10 -32 -7 0 3 -9 -2 -20 -12 -11 -10 -20 -15
-20 -11 0 4 -20 -13 -44 -36 -24 -24 -42 -46 -41 -49 2 -3 -9 -13 -26 -23 -16
-9 -29 -15 -29 -11 0 3 -13 -1 -30 -10 -16 -8 -33 -16 -37 -17 -14 -4 -63 -63
-76 -90 -6 -16 -14 -28 -17 -28 -3 0 -6 -21 -8 -47 -5 -73 14 -134 56 -179 40
-42 95 -77 106 -67 3 3 6 2 6 -4 0 -8 88 -11 285 -10 182 1 287 -2 289 -8 3
-5 5 -4 5 3 1 7 6 10 11 7 6 -3 10 -1 10 6 0 8 4 8 13 1 15 -13 107 50 114 79
3 10 10 19 15 19 5 0 7 4 3 9 -3 5 -2 12 3 15 12 7 14 72 2 115 -16 62 -91
129 -148 134 -12 0 -23 5 -23 9 -3 18 -6 25 -23 61 -19 39 -96 129 -96 112 0
-5 -6 -1 -13 10 -8 10 -19 15 -24 12 -6 -4 -14 0 -17 9 -3 8 -10 12 -16 9 -5
-3 -16 -3 -22 2 -21 13 -122 12 -156 -3z"/>
</g>
</svg>
