<svg width="24" height="25" viewBox="0 0 24 25" fill="none" xmlns="http://www.w3.org/2000/svg">
<path opacity="0.54" fill-rule="evenodd" clip-rule="evenodd" d="M17.5 1C15.0556 1 12.8556 2.7875 12 5.125C11.1444 2.7875 8.94444 1 6.5 1C3.44444 1 1 3.6125 1 7.1875C1 12 5.27778 16.125 12 23C18.7222 16.125 23 12 23 7.1875C23 3.6125 20.5556 1 17.5 1Z" stroke="black" stroke-width="2"/>
<path d="M4.43427 7.87829C4.18806 7.60131 4.22868 6.80892 4.29233 6.45885C4.35878 6.09337 4.76237 5.61182 4.98177 5.29491C5.22212 4.94774 5.4769 4.70586 5.89427 4.5568C6.12328 4.47501 6.42473 4.49501 6.66482 4.45135C6.94058 4.40122 7.03413 4.56457 7.24477 4.65819C8.03694 5.01026 8.30491 5.80359 8.88727 6.4183C9.19167 6.73961 9.41688 7.29284 9.65782 7.67552C9.77639 7.86383 9.77518 8.10183 9.76327 8.31629C9.75183 8.52206 9.20573 8.51956 9.04949 8.55152C8.63669 8.63595 8.21373 8.60829 7.79227 8.60829C7.58305 8.60829 7.43247 8.75429 7.23666 8.75429C6.94635 8.75429 6.63239 8.70806 6.37283 8.86379C6.06169 9.05048 5.74132 9.28309 5.38327 9.33424C5.12624 9.37095 5.13706 9.58231 5.16833 9.81685C5.2236 10.2314 5.22675 10.7652 5.35083 11.1552C5.56229 11.8198 6.08346 12.2208 6.34849 12.8423C6.60494 13.4436 6.99734 14.1313 7.44349 14.6105C8.06149 15.2743 8.64916 15.9842 9.43882 16.4598C9.628 16.5738 9.94775 16.6614 10.0715 16.8573C10.1187 16.9321 10.113 17.0224 10.1607 17.0925C10.2914 17.2847 10.3938 17.5015 10.55 17.6765C10.8551 18.0182 10.8539 18.5663 11.2598 18.7918C11.8135 19.0994 12.5527 18.2656 12.8211 17.9117C13.3135 17.2627 13.863 16.6562 14.3298 15.9772C14.5381 15.6742 14.8226 15.3899 15.0598 15.1053C15.2689 14.8543 15.5838 14.4209 15.8588 14.2617C16.2743 14.0212 16.6423 13.3691 16.9335 12.9883C17.3671 12.4212 17.8985 11.879 18.3773 11.3498C19.3945 10.2255 19.4749 8.70221 19.5453 7.29429C19.5672 6.85587 19.5086 6.38867 19.3628 5.9803C19.2605 5.69403 19.1074 5.20303 18.8112 5.1043C18.4747 4.99214 18.3967 4.7393 17.9798 4.7393C17.5209 4.7393 16.9674 4.68979 16.5847 5.00291C16.0842 5.4124 15.6332 5.84454 15.4167 6.46696C15.2749 6.87458 15.2216 7.44263 15.149 7.87829C15.0624 8.39839 14.9082 9.03418 14.6218 9.48429C14.1502 10.2254 13.8338 11.1238 13.0645 11.6013C12.7277 11.8103 12.0244 11.8203 11.6369 11.8203C11.3714 11.8203 11.1106 11.7077 10.9313 11.5283" stroke="#757575" stroke-width="6" stroke-linecap="round"/>
</svg>
