<svg width="24" height="24" viewBox="0 0 24 24" fill="none" xmlns="http://www.w3.org/2000/svg">
<path d="M12 14C6.99003 14 2.91003 17.36 2.91003 21.5C2.91003 21.78 3.13003 22 3.41003 22H20.59C20.87 22 21.09 21.78 21.09 21.5C21.09 17.36 17.01 14 12 14Z" fill="#8D939E"/>
<path d="M16.85 5.80002C16.73 5.31002 16.53 4.83002 16.25 4.39002C16.06 4.07002 15.81 3.75002 15.54 3.47002C14.64 2.57002 13.47 2.08002 12.27 2.02002C10.91 1.93002 9.51997 2.43002 8.46997 3.47002C7.47997 4.45002 6.97997 5.76002 6.99997 7.08002C7.00997 8.33002 7.50997 9.58002 8.45997 10.54C9.11997 11.2 9.92997 11.64 10.8 11.84C11.27 11.96 11.77 12.02 12.27 11.98C13.46 11.93 14.62 11.46 15.53 10.54C16.82 9.25002 17.26 7.44002 16.85 5.80002ZM14 9.00002C13.64 9.36002 13.04 9.36002 12.68 9.00002L11.99 8.31002L11.33 8.97002C10.97 9.33002 10.37 9.33002 10.01 8.97002C9.63997 8.60002 9.63997 8.01002 9.99997 7.65002L10.66 6.99002L10.02 6.37002C9.65997 6.00002 9.65997 5.41002 10.02 5.03002C10.39 4.67002 10.98 4.67002 11.36 5.03002L11.98 5.67002L12.65 5.00002C13.01 4.64002 13.6 4.64002 13.97 5.00002C14.33 5.36002 14.33 5.96002 13.97 6.32002L13.31 6.98002L14 7.68002C14.36 8.04002 14.36 8.64002 14 9.00002Z" fill="#8D939E"/>
</svg>
