<svg width="24" height="24" viewBox="0 0 24 24" fill="none" xmlns="http://www.w3.org/2000/svg">
<path d="M11.9702 2C6.45021 2 1.97021 6.48 1.97021 12C1.97021 17.52 6.45021 22 11.9702 22C17.4902 22 21.9702 17.52 21.9702 12C21.9702 6.48 17.5002 2 11.9702 2ZM17.4002 16.43C16.1702 18.2 14.1502 19.25 12.0002 19.25C9.85021 19.25 7.83021 18.2 6.60021 16.43C6.36021 16.09 6.45021 15.62 6.79021 15.39C7.13021 15.15 7.60021 15.24 7.83021 15.58C8.78021 16.94 10.3402 17.76 12.0002 17.76C13.6602 17.76 15.2202 16.95 16.1702 15.58C16.4102 15.24 16.8702 15.16 17.2102 15.39C17.5602 15.62 17.6402 16.09 17.4002 16.43Z" fill="#8D939E"/>
</svg>
