<?xml version="1.0" ?><svg id="Icons" viewBox="0 0 24 24" xmlns="http://www.w3.org/2000/svg" xmlns:xlink="http://www.w3.org/1999/xlink"><defs><style>.cls-1{fill:url(#linear-gradient);}.cls-2{fill:url(#linear-gradient-2);}.cls-3{fill:#cffeff;}</style><linearGradient gradientUnits="userSpaceOnUse" id="linear-gradient" x1="18.894" x2="18.894" y1="15.287" y2="22.614"><stop offset="0" stop-color="#5d5c66"/><stop offset="1" stop-color="#48474f"/></linearGradient><linearGradient gradientUnits="userSpaceOnUse" id="linear-gradient-2" x1="9.998" x2="9.998" y1="1.149" y2="18.652"><stop offset="0" stop-color="#a6f9ff"/><stop offset="1" stop-color="#3ed0f7"/></linearGradient></defs><path class="cls-1" d="M17.607,14.79l4.8,4.8a1.994,1.994,0,0,1-2.82,2.82l-4.8-4.8Z"/><circle class="cls-2" cx="9.998" cy="10" r="9"/><path class="cls-3" d="M5,11a1,1,0,0,1-1-1,6.006,6.006,0,0,1,6-6,1,1,0,0,1,0,2,4,4,0,0,0-4,4A1,1,0,0,1,5,11Z"/></svg>