<?xml version="1.0" standalone="no"?>
<!DOCTYPE svg PUBLIC "-//W3C//DTD SVG 20010904//EN"
 "http://www.w3.org/TR/2001/REC-SVG-20010904/DTD/svg10.dtd">
<svg version="1.0" xmlns="http://www.w3.org/2000/svg"
 width="700.000000pt" height="700.000000pt" viewBox="0 0 700.000000 700.000000"
 preserveAspectRatio="xMidYMid meet">
<metadata>
Created by potrace 1.14, written by Peter Selinger 2001-2017
</metadata>
<g transform="translate(0.000000,700.000000) scale(0.100000,-0.100000)"
fill="#000000" stroke="none">
<path d="M3675 6412 c-52 -3 -257 -27 -310 -37 -662 -119 -1244 -469 -1629
-979 -170 -226 -297 -479 -376 -749 -37 -124 -35 -159 11 -212 53 -60 85 -62
239 -20 353 97 708 105 1060 24 397 -92 762 -300 1042 -596 273 -287 463 -693
505 -1078 15 -131 8 -406 -13 -500 -2 -11 -6 -31 -8 -45 -22 -130 -82 -311
-153 -459 -95 -198 -85 -219 154 -361 87 -52 282 -168 433 -258 522 -311 518
-309 612 -298 121 15 228 108 252 221 12 57 11 79 -19 318 -13 100 -16 125
-20 157 -8 74 -17 146 -20 161 -2 8 -6 40 -9 70 -3 30 -10 88 -15 129 -6 42
-13 103 -16 135 l-6 60 63 45 c146 104 312 263 442 425 71 87 186 249 186 261
0 3 9 18 20 34 24 34 110 205 140 280 12 30 28 69 35 85 35 82 93 302 112 420
2 17 6 41 8 55 25 147 24 448 0 630 -6 43 -41 218 -50 250 -4 15 -34 117 -39
135 -31 103 -137 336 -206 450 -16 28 -33 57 -37 65 -7 17 -23 39 -109 155
-32 44 -72 96 -88 115 -47 55 -256 261 -309 305 -27 22 -54 45 -60 50 -73 64
-288 199 -432 272 -233 118 -527 215 -750 248 -22 4 -47 8 -55 10 -8 3 -37 7
-65 10 -27 2 -72 7 -100 11 -54 7 -338 11 -420 6z"/>
<path d="M2099 4056 c-2 -2 -40 -6 -84 -9 -294 -21 -630 -158 -875 -355 -449
-362 -648 -930 -514 -1470 79 -320 264 -601 535 -812 35 -28 63 -54 62 -58 -1
-8 -10 -78 -18 -152 -5 -43 -31 -242 -40 -305 -22 -157 -13 -206 46 -259 63
-58 142 -66 217 -25 20 12 145 85 277 164 132 78 254 151 272 161 18 11 69 41
115 68 46 27 86 51 90 53 4 2 42 5 85 8 109 5 216 20 303 40 14 3 35 8 48 11
54 11 214 69 291 106 445 212 757 600 857 1068 13 62 18 130 19 250 0 186 -4
228 -35 355 -124 500 -509 903 -1027 1075 -65 21 -135 41 -157 44 -21 4 -41 8
-45 10 -3 2 -30 7 -60 11 -30 4 -63 9 -75 11 -27 5 -282 14 -287 10z"/>
</g>
</svg>
